<svg xmlns="http://www.w3.org/2000/svg" width="240" height="240" viewBox="0 0 240 240">
<rect width="240" height="240" fill="#fff8fc"/>

<g fill="#f7a8c8" opacity=".35">

<g transform="translate(35 45) scale(.45)">
<path d="M70 52c6-13 18-14 21-5 2 7-3 13-10 16 9-2 18 4 16 12-3 9-15 10-24 4 6 7 7 18-1 22-8 4-16-5-17-15-1 10-9 19-17 15-8-4-7-15-1-22-9 6-21 5-24-4-2-8 7-14 16-12-7-3-12-9-10-16 3-9 15-8 21 5 1-8 5-15 10-15s9 7 10 15z"/>
</g>

<g transform="translate(170 80) scale(.32)">
<path d="M70 52c6-13 18-14 21-5 2 7-3 13-10 16 9-2 18 4 16 12-3 9-15 10-24 4 6 7 7 18-1 22-8 4-16-5-17-15-1 10-9 19-17 15-8-4-7-15-1-22-9 6-21 5-24-4-2-8 7-14 16-12-7-3-12-9-10-16 3-9 15-8 21 5 1-8 5-15 10-15s9 7 10 15z"/>
</g>

<g transform="translate(90 170) scale(.28)">
<path d="M70 52c6-13 18-14 21-5 2 7-3 13-10 16 9-2 18 4 16 12-3 9-15 10-24 4 6 7 7 18-1 22-8 4-16-5-17-15-1 10-9 19-17 15-8-4-7-15-1-22-9 6-21 5-24-4-2-8 7-14 16-12-7-3-12-9-10-16 3-9 15-8 21 5 1-8 5-15 10-15s9 7 10 15z"/>
</g>

</g>

<g fill="#ffc4dd" opacity=".45">
<circle cx="190" cy="35" r="3"/>
<circle cx="50" cy="150" r="3"/>
<circle cx="210" cy="180" r="4"/>
<circle cx="25" cy="95" r="2"/>
<circle cx="130" cy="25" r="2"/>
<circle cx="155" cy="135" r="2"/>
</g>

</svg>