<svg xmlns="http://www.w3.org/2000/svg" width="240" height="240" viewBox="0 0 240 240">
<rect width="240" height="240" fill="#fff8fc"/>

<g opacity=".45" fill="#f7a8c8">
<path d="M46 37c8-12 19-9 18 1-1 7-8 11-15 11 7 2 11 10 6 16-6 7-15 4-20-2 1 8-4 15-11 14-8-2-8-11-3-18-7 4-15 2-17-5-1-8 7-12 14-10-6-4-8-11-3-16 6-5 14-1 18 9 2-7 7-12 13-12s11 5 13 12z"/>
</g>

<g opacity=".35" fill="#ffc4dd">
<path d="M175 75c7-10 17-8 16 1-1 6-7 10-13 10 7 2 10 8 6 14-5 6-13 4-18-2 1 7-4 13-10 12-7-2-7-10-2-16-6 4-13 2-15-4-1-7 6-11 12-9-5-4-7-10-2-14 5-5 12-1 16 8 2-6 6-11 10-11s8 5 10 11z"/>
</g>

<g opacity=".3" fill="#f9b6d4">
<path d="M95 170c8-11 17-8 16 1-1 6-7 10-13 10 7 2 10 8 6 14-5 6-13 4-18-2 1 7-4 13-10 12-7-2-7-10-2-16-6 4-13 2-15-4-1-7 6-11 12-9-5-4-7-10-2-14 5-5 12-1 16 8 2-6 6-11 10-11s8 5 10 11z"/>
</g>

<g opacity=".4" fill="#ffd8e8">
<circle cx="205" cy="185" r="4"/>
<circle cx="180" cy="205" r="3"/>
<circle cx="45" cy="190" r="3"/>
<circle cx="140" cy="30" r="3"/>
<circle cx="25" cy="105" r="2"/>
</g>
</svg>